<svg xmlns="http://www.w3.org/2000/svg" xmlns:xlink="http://www.w3.org/1999/xlink" style="vertical-align:-2.38ex" width="71.794ex" height="5.884ex" viewBox="0 -1508.9 30911.1 2533.5"><defs><path id="f" stroke-width="1" d="M11 1388v62h269V-949H11v62h207v2275H11z"/><path id="b" stroke-width="1" d="M213 578l-13-5q-14-5-40-10t-58-7H83v46h19q47 2 87 15t56 24 28 22q2 3 12 3 9 0 17-6V361l1-300q7-7 12-9t24-4 62-2h26V0h-11q-21 3-159 3-136 0-157-3H88v46h64q16 0 25 1t16 3 8 2 6 5 6 4v517z"/><path id="c" stroke-width="1" d="M109 429q-27 0-43 18t-16 44q0 71 53 123t132 52q91 0 152-56t62-145q0-43-20-82t-48-68-80-74q-36-31-100-92l-59-56 76-1q157 0 167 5 7 2 24 89v3h40v-3q-1-3-13-91T421 3V0H50v31q0 7 6 15t30 35q29 32 50 56 9 10 34 37t34 37 29 33 28 34 23 30 21 32 15 29 13 32 7 30 3 33q0 63-34 109t-97 46q-33 0-58-17t-35-33-10-19q0-1 5-1 18 0 37-14t19-46q0-25-16-42t-45-18z"/><path id="e" stroke-width="1" d="M96 585q56 81 153 81 48 0 96-26t78-92q37-83 37-228 0-155-43-237-20-42-55-67t-61-31-51-7q-26 0-52 6t-61 32-55 67q-43 82-43 237 0 174 57 265zm225 12q-30 32-71 32-42 0-72-32-25-26-33-72t-8-192q0-158 8-208t36-79q28-30 69-30 40 0 68 30 29 30 36 84t8 203q0 145-8 191t-33 73z"/><path id="a" stroke-width="1" d="M247-949v2399h269v-62H309V-887h207v-62H247z"/><path id="d" stroke-width="1" d="M462 0q-18 3-129 3-116 0-134-3h-9v46h58q7 0 17 2t14 5 7 8q1 2 1 54v50H28v46l151 231q153 232 155 233 2 2 21 2h18l6-6V211h92v-46h-92v-51-48q0-7 6-12 8-7 57-8h29V0h-9zM293 211v334L74 212l109-1h110z"/><path id="g" stroke-width="1" d="M84 237v13l14 20h581q15-8 15-20t-15-20H98q-14 7-14 20z"/><path id="i" stroke-width="1" d="M164 157q0-24-16-40t-39-16h-7q46-79 122-79 70 0 102 60 19 33 19 128 0 103-27 139-26 33-58 33h-6q-78 0-118-68-4-7-7-8t-15-2q-17 0-19 6-2 4-2 175v129q0 50 5 50 2 2 4 2 1 0 21-8t55-16 75-8q71 0 136 28 8 4 13 4 8 0 8-18v-13q-82-97-205-97-31 0-56 6l-10 2V374q19 14 30 22t36 16 51 8q81 0 137-65t56-154q0-92-64-157T229-22q-81 0-130 54T50 154q0 24 11 38t23 18 23 4q25 0 41-17t16-40z"/><path id="h" stroke-width="1" d="M55 458q1 2 17 109l16 107q0 2 20 2h20v-4q0-10 15-17t52-9 169-2h121v-39l-68-93-30-40q-21-28-27-37t-21-32-20-36-14-37-13-46-8-54-6-68-3-82V52q0-14-1-24v-9q-4-17-19-29t-34-12q-11 0-21 3T179 0t-11 40q0 158 97 328 20 32 84 121l46 63h-93q-174 0-183-6-6-3-11-24t-10-43l-3-21v-3H55v3z"/><path id="j" stroke-width="1" d="M56 347q0 13 14 20h637q15-8 15-20 0-11-14-19l-318-1H72q-16 5-16 20zm0-194q0 15 16 20h636q14-10 14-20 0-13-15-20H70q-14 7-14 20z"/><path id="k" stroke-width="1" d="M127 463q-27 0-42 17t-16 44q0 55 48 98t116 43q35 0 44-1 74-12 113-53t40-89q0-52-34-101t-94-71l-3-2q0-1 9-3t29-9 38-21q82-53 82-140 0-79-62-138T238-22q-80 0-138 43T42 130q0 28 18 45t45 18q28 0 46-18t18-45q0-11-3-20t-7-16-11-12-12-8-10-4-8-3l-4-1q51-45 124-45 55 0 83 53 17 33 17 101v20q0 95-64 127-15 6-61 7l-42 1-3 2q-2 3-2 16 0 18 8 18 28 0 58 5 34 5 62 42t28 112v8q0 57-35 79-22 14-47 14-32 0-59-11t-38-23-11-12h3q3-1 8-2t10-5 12-7 10-11 8-15 3-20q0-22-14-39t-45-18z"/></defs><g fill="currentColor" stroke="currentColor" stroke-width="0" transform="scale(1 -1)"><use xlink:href="#a"/><g transform="translate(681)"><use y="650" xlink:href="#b"/><use y="-750" xlink:href="#c"/></g><g transform="translate(2181)"><use y="650" xlink:href="#d"/><use y="-750" xlink:href="#e"/></g><g transform="translate(3682)"><use y="650" xlink:href="#c"/><use y="-750" xlink:href="#e"/></g><use x="4350" y="-1" xlink:href="#f"/><use x="5100" xlink:href="#g"/><g transform="translate(6101)"><use xlink:href="#a"/><g transform="translate(681)"><use y="650" xlink:href="#e"/><use y="-750" xlink:href="#h"/></g><g transform="translate(2181)"><use y="650" xlink:href="#e"/><use y="-750" xlink:href="#i"/></g><g transform="translate(3682)"><use y="650" xlink:href="#i"/><use y="-750" xlink:href="#e"/></g><use x="4350" y="-1" xlink:href="#f"/></g><use x="11257" xlink:href="#j"/><g transform="translate(12314)"><use xlink:href="#a"/><g transform="translate(681 650)"><use xlink:href="#b"/><use x="722" xlink:href="#g"/><use x="1723" xlink:href="#e"/></g><g transform="translate(681 -750)"><use xlink:href="#c"/><use x="722" xlink:href="#g"/><use x="1723" xlink:href="#h"/></g><g transform="translate(3905 650)"><use xlink:href="#d"/><use x="722" xlink:href="#g"/><use x="1723" xlink:href="#e"/></g><g transform="translate(3905 -750)"><use xlink:href="#e"/><use x="722" xlink:href="#g"/><use x="1723" xlink:href="#i"/></g><g><g transform="translate(7128 650)"><use xlink:href="#c"/><use x="722" xlink:href="#g"/><use x="1723" xlink:href="#i"/></g><g transform="translate(7128 -750)"><use xlink:href="#e"/><use x="722" xlink:href="#g"/><use x="1723" xlink:href="#e"/></g></g><use x="9520" y="-1" xlink:href="#f"/></g><use x="22640" xlink:href="#j"/><g transform="translate(23697)"><use xlink:href="#a"/><g transform="translate(681)"><use x="389" y="650" xlink:href="#b"/><g transform="translate(0 -750)"><use xlink:href="#g"/><use x="778" xlink:href="#i"/></g></g><g transform="translate(2960)"><use x="389" y="650" xlink:href="#d"/><g transform="translate(0 -750)"><use xlink:href="#g"/><use x="778" xlink:href="#i"/></g></g><g transform="translate(5239)"><g transform="translate(0 650)"><use xlink:href="#g"/><use x="778" xlink:href="#k"/></g><use x="389" y="-750" xlink:href="#e"/></g><use x="6685" y="-1" xlink:href="#f"/></g></g></svg>