<svg xmlns="http://www.w3.org/2000/svg" xmlns:xlink="http://www.w3.org/1999/xlink" style="vertical-align:-4.005ex" width="27.926ex" height="9.134ex" viewBox="0 -2208.6 12023.8 3932.8"><defs><path id="i" stroke-width="1" d="M40 437q-19 0-19 8 0 5 16 56t34 101l17 49q5 18 13 26h558q32 0 38-1t7-9q0-6-17-114t-19-109q0-7-19-7h-12q-3 0-6 5l-2 3q0 6 6 45t6 61q0 35-13 53t-55 25q-5 1-58 2-46 0-58-1t-18-8q-1-1-71-279T298 60q0-12 88-14 32 0 41-1t9-9q0-5-3-14-4-18-9-21l-2-1h-7q-5 0-52 1T228 2Q99 2 64 0H49q-6 6-6 9t2 18q4 13 10 19h39q80 0 95 9 1 1 2 1 5 3 10 20t40 157q17 68 28 111 70 275 70 281 0 5-29 5h-31q-67 0-88-6-45-10-70-41T67 467q-7-22-10-26t-14-4h-3z"/><path id="b" stroke-width="1" d="M109 429q-27 0-43 18t-16 44q0 71 53 123t132 52q91 0 152-56t62-145q0-43-20-82t-48-68-80-74q-36-31-100-92l-59-56 76-1q157 0 167 5 7 2 24 89v3h40v-3q-1-3-13-91T421 3V0H50v31q0 7 6 15t30 35q29 32 50 56 9 10 34 37t34 37 29 33 28 34 23 30 21 32 15 29 13 32 7 30 3 33q0 63-34 109t-97 46q-33 0-58-17t-35-33-10-19q0-1 5-1 18 0 37-14t19-46q0-25-16-42t-45-18z"/><path id="f" stroke-width="1" d="M127 463q-27 0-42 17t-16 44q0 55 48 98t116 43q35 0 44-1 74-12 113-53t40-89q0-52-34-101t-94-71l-3-2q0-1 9-3t29-9 38-21q82-53 82-140 0-79-62-138T238-22q-80 0-138 43T42 130q0 28 18 45t45 18q28 0 46-18t18-45q0-11-3-20t-7-16-11-12-12-8-10-4-8-3l-4-1q51-45 124-45 55 0 83 53 17 33 17 101v20q0 95-64 127-15 6-61 7l-42 1-3 2q-2 3-2 16 0 18 8 18 28 0 58 5 34 5 62 42t28 112v8q0 57-35 79-22 14-47 14-32 0-59-11t-38-23-11-12h3q3-1 8-2t10-5 12-7 10-11 8-15 3-20q0-22-14-39t-45-18z"/><path id="c" stroke-width="1" d="M96 585q56 81 153 81 48 0 96-26t78-92q37-83 37-228 0-155-43-237-20-42-55-67t-61-31-51-7q-26 0-52 6t-61 32-55 67q-43 82-43 237 0 174 57 265zm225 12q-30 32-71 32-42 0-72-32-25-26-33-72t-8-192q0-158 8-208t36-79q28-30 69-30 40 0 68 30 29 30 36 84t8 203q0 145-8 191t-33 73z"/><path id="e" stroke-width="1" d="M84 237v13l14 20h581q15-8 15-20t-15-20H98q-14 7-14 20z"/><path id="g" stroke-width="1" d="M70 417v77l54 124 124 48q71 0 126-42t55-109q0-30-11-56t-26-42-31-28-26-18-11-8l14-9 28-20q14-10 16-11 75-59 75-149 0-79-58-137T249-22q-90 0-148 51T43 155q0 108 129 180l-18 13q-21 13-27 20-57 49-57 126zm216-31l6 4 9 6q3 2 10 7t12 10 11 12 11 13 10 16 9 17 5 20 2 22q0 43-29 73t-67 38q-7 1-33 1-41 0-77-26t-37-65q0-23 13-42t26-29 50-32q7-5 11-7l58-38zM250 21q58 0 100 34t42 82q0 17-5 32t-12 25-22 22-23 18-29 19-27 17q-14 9-30 19t-26 17l-8 5q-6 0-29-17t-48-55-26-82q0-59 43-97t100-39z"/><path id="a" stroke-width="1" d="M247-949v2399h269v-62H309V-887h207v-62H247z"/><path id="h" stroke-width="1" d="M11 1388v62h269V-949H11v62h207v2275H11z"/><path id="d" stroke-width="1" d="M462 0q-18 3-129 3-116 0-134-3h-9v46h58q7 0 17 2t14 5 7 8q1 2 1 54v50H28v46l151 231q153 232 155 233 2 2 21 2h18l6-6V211h92v-46h-92v-51-48q0-7 6-12 8-7 57-8h29V0h-9zM293 211v334L74 212l109-1h110z"/><path id="j" stroke-width="1" d="M56 347q0 13 14 20h637q15-8 15-20 0-11-14-19l-318-1H72q-16 5-16 20zm0-194q0 15 16 20h636q14-10 14-20 0-13-15-20H70q-14 7-14 20z"/><path id="k" stroke-width="1" d="M319-645v1799h347v-84H403V-645h-84z"/><path id="m" stroke-width="1" d="M319-644v1799h84V-560h263v-84H319z"/><path id="l" stroke-width="1" d="M319 0v602h84V0h-84z"/><path id="n" stroke-width="1" d="M0 1070v84h347V-645h-84v1715H0z"/><path id="p" stroke-width="1" d="M263-560v1715h84V-644H0v84h263z"/><path id="o" stroke-width="1" d="M263 0v602h84V0h-84z"/></defs><g fill="currentColor" stroke="currentColor" stroke-width="0" transform="scale(1 -1)"><use xlink:href="#a"/><g transform="translate(681)"><use y="650" xlink:href="#b"/><use y="-750" xlink:href="#c"/></g><g transform="translate(2181)"><use x="389" y="650" xlink:href="#d"/><g transform="translate(0 -750)"><use xlink:href="#e"/><use x="778" xlink:href="#b"/></g></g><g transform="translate(4460)"><use y="650" xlink:href="#f"/><use y="-750" xlink:href="#g"/></g><use x="5128" y="-1" xlink:href="#h"/><use x="8000" y="1665" transform="scale(.707)" xlink:href="#i"/><use x="6532" xlink:href="#j"/><g><g transform="translate(7589 2150)"><use y="-1155" xlink:href="#k"/><use transform="matrix(1 0 0 .49338 0 -2048.507)" xlink:href="#l"/><use y="-3155" xlink:href="#m"/></g><g transform="translate(8409)"><use y="1350" xlink:href="#b"/><use y="-50" xlink:href="#d"/><use y="-1450" xlink:href="#f"/></g><g transform="translate(9909)"><use x="389" y="1350" xlink:href="#c"/><g transform="translate(0 -50)"><use xlink:href="#e"/><use x="778" xlink:href="#b"/></g><use x="389" y="-1450" xlink:href="#g"/></g><g transform="translate(11356 2150)"><use y="-1155" xlink:href="#n"/><use transform="matrix(1 0 0 .49338 0 -2048.507)" xlink:href="#o"/><use y="-3155" xlink:href="#p"/></g></g></g></svg>