<svg xmlns="http://www.w3.org/2000/svg" xmlns:xlink="http://www.w3.org/1999/xlink" style="vertical-align:-6.505ex" width="72.284ex" height="14.134ex" viewBox="0 -3285 31122.3 6085.6"><defs><path id="k" stroke-width="1" d="M127 463q-27 0-42 17t-16 44q0 55 48 98t116 43q35 0 44-1 74-12 113-53t40-89q0-52-34-101t-94-71l-3-2q0-1 9-3t29-9 38-21q82-53 82-140 0-79-62-138T238-22q-80 0-138 43T42 130q0 28 18 45t45 18q28 0 46-18t18-45q0-11-3-20t-7-16-11-12-12-8-10-4-8-3l-4-1q51-45 124-45 55 0 83 53 17 33 17 101v20q0 95-64 127-15 6-61 7l-42 1-3 2q-2 3-2 16 0 18 8 18 28 0 58 5 34 5 62 42t28 112v8q0 57-35 79-22 14-47 14-32 0-59-11t-38-23-11-12h3q3-1 8-2t10-5 12-7 10-11 8-15 3-20q0-22-14-39t-45-18z"/><path id="a" stroke-width="1" d="M43 1q-17 0-17 9 0 2 3 14 5 19 10 21 3 1 15 1h6q60 0 76 7 1 0 2 1 5 2 11 23t49 196q12 45 18 71 70 280 70 282-2 4-2 5-10 6-71 6h-20q-9 6-4 25 4 15 6 18t14 3h4q72-2 146-2 122 0 128 2h10q7-7 7-11t-3-17-7-16q-3-2-23-2-31 0-64-3-14-3-19-11-7-14-51-191-11-47-22-91-70-276-70-282 0-7 10-9t52-4h32q6-8 6-9t-3-18q-4-13-10-19h-16q-37 2-137 2H65Q47 2 43 1z"/><path id="c" stroke-width="1" d="M56 347q0 13 14 20h637q15-8 15-20 0-11-14-19l-318-1H72q-16 5-16 20zm0-194q0 15 16 20h636q14-10 14-20 0-13-15-20H70q-14 7-14 20z"/><path id="d" stroke-width="1" d="M118-250V750h137v-40h-97v-920h97v-40H118z"/><path id="e" stroke-width="1" d="M22 710v40h137V-250H22v40h97v920H22z"/><path id="f" stroke-width="1" d="M78 35v25l16 43 43 18q28 0 50-25t23-88q0-35-9-68t-21-57-26-41-24-27-13-9q-4 0-13 9t-9 13q0 4 11 16t25 30 26 50 16 73V9l-1-1q-2-1-5-2t-6-3-9-2-12-1q-27 0-44 17z"/><path id="g" stroke-width="1" d="M109 429q-27 0-43 18t-16 44q0 71 53 123t132 52q91 0 152-56t62-145q0-43-20-82t-48-68-80-74q-36-31-100-92l-59-56 76-1q157 0 167 5 7 2 24 89v3h40v-3q-1-3-13-91T421 3V0H50v31q0 7 6 15t30 35q29 32 50 56 9 10 34 37t34 37 29 33 28 34 23 30 21 32 15 29 13 32 7 30 3 33q0 63-34 109t-97 46q-33 0-58-17t-35-33-10-19q0-1 5-1 18 0 37-14t19-46q0-25-16-42t-45-18z"/><path id="i" stroke-width="1" d="M96 585q56 81 153 81 48 0 96-26t78-92q37-83 37-228 0-155-43-237-20-42-55-67t-61-31-51-7q-26 0-52 6t-61 32-55 67q-43 82-43 237 0 174 57 265zm225 12q-30 32-71 32-42 0-72-32-25-26-33-72t-8-192q0-158 8-208t36-79q28-30 69-30 40 0 68 30 29 30 36 84t8 203q0 145-8 191t-33 73z"/><path id="h" stroke-width="1" d="M247-949v2399h269v-62H309V-887h207v-62H247z"/><path id="j" stroke-width="1" d="M11 1388v62h269V-949H11v62h207v2275H11z"/><path id="b" stroke-width="1" d="M213 578l-13-5q-14-5-40-10t-58-7H83v46h19q47 2 87 15t56 24 28 22q2 3 12 3 9 0 17-6V361l1-300q7-7 12-9t24-4 62-2h26V0h-11q-21 3-159 3-136 0-157-3H88v46h64q16 0 25 1t16 3 8 2 6 5 6 4v517z"/><path id="l" stroke-width="1" d="M319-645v1799h347v-84H403V-645h-84z"/><path id="n" stroke-width="1" d="M319-644v1799h84V-560h263v-84H319z"/><path id="m" stroke-width="1" d="M319 0v602h84V0h-84z"/><path id="o" stroke-width="1" d="M0 1070v84h347V-645h-84v1715H0z"/><path id="q" stroke-width="1" d="M263-560v1715h84V-644H0v84h263z"/><path id="p" stroke-width="1" d="M263 0v602h84V0h-84z"/><path id="r" stroke-width="1" d="M78 250q0 24 17 42t43 18q24 0 42-16t19-43q0-25-17-43t-43-18-43 17-18 43zm447 0q0 24 17 42t43 18q24 0 42-16t19-43q0-25-17-43t-43-18-43 17-18 43zm447 0q0 24 17 42t43 18q24 0 42-16t19-43q0-25-17-43t-43-18-43 17-18 43z"/><path id="s" stroke-width="1" d="M21 287q1 6 3 16t12 38 20 47 33 37 46 17q36 0 60-18t30-34 6-21q0-2 1-2l11 11q61 64 139 64 54 0 87-27t34-79-38-157-38-127q0-26 17-26 6 0 9 1 29 5 52 38t35 80q2 8 20 8 20 0 20-8 0-1-4-15-8-29-22-57t-46-56-69-27q-47 0-68 27t-21 56q0 19 36 120t37 152q0 59-44 59h-5q-86 0-145-101l-7-12-33-134Q156 26 151 16q-13-27-43-27-13 0-21 6T76 7t-2 10q0 13 38 163t40 163q1 5 1 23 0 39-24 39-38 0-63-100-6-20-6-21-2-6-19-6H27q-6 6-6 9z"/><path id="t" stroke-width="1" d="M78 30q0 24 17 42t43 18q24 0 42-16t19-43q0-25-17-43t-43-18-43 17-18 43zm0 410q0 24 17 42t43 18q24 0 42-16t19-43q0-25-17-43t-43-18-43 17-18 43zm0 400q0 24 17 42t43 18q24 0 42-16t19-43q0-25-17-43t-43-18-43 17-18 43z"/><path id="u" stroke-width="1" d="M133 760q0 24 17 42t43 18q24 0 42-16t19-43q0-25-17-43t-43-18-43 17-18 43zm447-300q0 24 17 42t43 18q24 0 42-16t19-43q0-25-17-43t-43-18-43 17-18 43zm447-300q0 24 17 42t43 18q24 0 42-16t19-43q0-25-17-43t-43-18-43 17-18 43z"/></defs><g fill="currentColor" stroke="currentColor" stroke-width="0" transform="scale(1 -1)"><use xlink:href="#a"/><use x="622" y="-213" transform="scale(.707)" xlink:href="#b"/><use x="1172" xlink:href="#c"/><g transform="translate(2228)"><use xlink:href="#d"/><use x="431" y="-50" xlink:href="#b"/><use x="1099" xlink:href="#e"/></g><use x="3772" xlink:href="#f"/><g transform="translate(4467)"><use xlink:href="#a"/><use x="622" y="-213" transform="scale(.707)" xlink:href="#g"/></g><use x="5640" xlink:href="#c"/><g transform="translate(6696)"><use xlink:href="#h"/><g transform="translate(681)"><use y="650" xlink:href="#b"/><use y="-750" xlink:href="#i"/></g><g transform="translate(2181)"><use y="650" xlink:href="#i"/><use y="-750" xlink:href="#b"/></g><use x="2849" y="-1" xlink:href="#j"/></g><use x="10241" xlink:href="#f"/><g transform="translate(10936)"><use xlink:href="#a"/><use x="622" y="-213" transform="scale(.707)" xlink:href="#k"/></g><use x="12108" xlink:href="#c"/><g transform="translate(13164 2150)"><use y="-1155" xlink:href="#l"/><use transform="matrix(1 0 0 .49338 0 -2048.507)" xlink:href="#m"/><use y="-3155" xlink:href="#n"/></g><g transform="translate(13984)"><use y="1350" xlink:href="#b"/><use y="-50" xlink:href="#i"/><use y="-1450" xlink:href="#i"/></g><g transform="translate(15484)"><use y="1350" xlink:href="#i"/><use y="-50" xlink:href="#b"/><use y="-1450" xlink:href="#i"/></g><g transform="translate(16985)"><use y="1350" xlink:href="#i"/><use y="-50" xlink:href="#i"/><use y="-1450" xlink:href="#b"/></g><g transform="translate(17653 2150)"><use y="-1155" xlink:href="#o"/><use transform="matrix(1 0 0 .49338 0 -2048.507)" xlink:href="#p"/><use y="-3155" xlink:href="#q"/></g><use x="18487" xlink:href="#f"/><use x="19349" xlink:href="#r"/><use x="20688" xlink:href="#f"/><g transform="translate(21384)"><use xlink:href="#a"/><use x="622" y="-213" transform="scale(.707)" xlink:href="#s"/></g><use x="22626" xlink:href="#c"/><g><g transform="translate(23683 3210)"><use y="-1155" xlink:href="#l"/><use transform="matrix(1 0 0 4.00497 0 -4165.995)" xlink:href="#m"/><use y="-5276" xlink:href="#n"/></g><g transform="translate(24503)"><use y="2410" xlink:href="#b"/><use y="1010" xlink:href="#i"/><use x="111" y="-1111" xlink:href="#t"/><use y="-2511" xlink:href="#i"/></g><g transform="translate(26003)"><use y="2410" xlink:href="#i"/><use y="1010" xlink:href="#b"/><use x="111" y="-1111" xlink:href="#t"/><use y="-2511" xlink:href="#i"/></g><g transform="translate(27504)"><use x="55" y="2410" xlink:href="#r"/><use x="55" y="1010" xlink:href="#r"/><use y="-1111" xlink:href="#u"/><use x="55" y="-2511" xlink:href="#r"/></g><g transform="translate(29786)"><use y="2410" xlink:href="#i"/><use y="1010" xlink:href="#i"/><use x="111" y="-1111" xlink:href="#t"/><use y="-2511" xlink:href="#b"/></g><g transform="translate(30454 3210)"><use y="-1155" xlink:href="#o"/><use transform="matrix(1 0 0 4.00497 0 -4165.995)" xlink:href="#p"/><use y="-5276" xlink:href="#q"/></g></g></g></svg>