<svg xmlns="http://www.w3.org/2000/svg" xmlns:xlink="http://www.w3.org/1999/xlink" style="vertical-align:-.505ex" width="17.998ex" height="2.759ex" viewBox="0 -970.7 7749 1188"><defs><path id="a" stroke-width="1" d="M107 637q-34 0-36 4-1 2-1 8 0 24 11 33 2 1 17 1 41-2 136-2h63q29 0 45 1t20 0q16 0 16-10 0-2-2-14-5-17-10-20h-14q-4 0-9-1t-9 0q-39-1-50-3t-18-11q-1-2-28-105t-54-216-30-133q-2-14-2-29 0-54 31-85t86-31q67 0 134 45t98 136l51 201q47 192 47 200 0 27-64 31-24 0-24 11 0 2 2 12 4 16 6 19t10 4q3 0 32-1t84-2q51 0 78 1t29 1q15 0 15-10 0-22-8-30-3-5-22-5-71-4-89-40-2-5-50-193-41-169-50-199-33-100-115-163T263-22q-92 0-147 56T60 167v16q0 18 55 238 49 201 49 207 0 7-57 9z"/><path id="b" stroke-width="1" d="M182 675q13 30 40 30 12 0 21-5t10-9 10-16l-1-20q0-35-10-106t-12-95v-5q10 2 48 12t58 11 31-11 12-30q0-14-10-27t-33-14q-19 0-58 11t-45 11h-3v-7q5-38 10-66t8-38 3-27 2-49q0-101-8-266t-16-172q-3-3-17-3h-5q-11 0-13 4t-4 26q-1 11-1 18-18 206-18 393 0 40 1 55t9 47 13 78v7h-3q-5 0-44-11t-59-11q-22 0-32 13t-11 28 10 27 33 14q18 0 57-10t50-13q-1 3-1 11t-3 30-8 57q-11 72-11 108v20z"/><path id="c" stroke-width="1" d="M56 347q0 13 14 20h637q15-8 15-20 0-11-14-19l-318-1H72q-16 5-16 20zm0-194q0 15 16 20h636q14-10 14-20 0-13-15-20H70q-14 7-14 20z"/><path id="d" stroke-width="1" d="M43 1q-17 0-17 9 0 2 3 14 5 19 10 21 3 1 15 1h6q60 0 76 7 1 0 2 1 5 2 11 23t49 196q12 45 18 71 70 280 70 282-2 4-2 5-10 6-71 6h-20q-9 6-4 25 4 15 6 18t14 3h4q72-2 146-2 122 0 128 2h10q7-7 7-11t-3-17-7-16q-3-2-23-2-31 0-64-3-14-3-19-11-7-14-51-191-11-47-22-91-70-276-70-282 0-7 10-9t52-4h32q6-8 6-9t-3-18q-4-13-10-19h-16q-37 2-137 2H65Q47 2 43 1z"/><path id="e" stroke-width="1" d="M21 287q1 6 3 16t12 38 20 47 33 37 46 17q36 0 60-18t30-34 6-21q0-2 1-2l11 11q61 64 139 64 54 0 87-27t34-79-38-157-38-127q0-26 17-26 6 0 9 1 29 5 52 38t35 80q2 8 20 8 20 0 20-8 0-1-4-15-8-29-22-57t-46-56-69-27q-47 0-68 27t-21 56q0 19 36 120t37 152q0 59-44 59h-5q-86 0-145-101l-7-12-33-134Q156 26 151 16q-13-27-43-27-13 0-21 6T76 7t-2 10q0 13 38 163t40 163q1 5 1 23 0 39-24 39-38 0-63-100-6-20-6-21-2-6-19-6H27q-6 6-6 9z"/></defs><g fill="currentColor" stroke="currentColor" stroke-width="0" transform="scale(1 -1)"><use xlink:href="#a"/><use x="1121" y="583" transform="scale(.707)" xlink:href="#b"/><use x="1207" xlink:href="#a"/><use x="2252" xlink:href="#c"/><use x="3308" xlink:href="#a"/><g transform="translate(4076)"><use xlink:href="#a"/><use x="1121" y="583" transform="scale(.707)" xlink:href="#b"/></g><use x="5560" xlink:href="#c"/><g transform="translate(6617)"><use xlink:href="#d"/><use x="622" y="-213" transform="scale(.707)" xlink:href="#e"/></g></g></svg>